<svg xmlns="http://www.w3.org/2000/svg" viewBox="0 0 26.87 26.87"><defs><style>.cls-1{fill:#fff;}</style></defs><g id="Layer_2" data-name="Layer 2"><g id="Layer_1-2" data-name="Layer 1"><rect width="26.87" height="26.87" rx="7.62"/><path class="cls-1" d="M6.92,8.21A1.25,1.25,0,0,1,8.29,7a1.24,1.24,0,1,1,0,2.47A1.25,1.25,0,0,1,6.92,8.21Zm.29,2.72H9.37v9H7.21Z"/><path class="cls-1" d="M14.26,19.9H12.1v-9h2.16V12.5A2.88,2.88,0,0,1,17,10.75c1.84,0,2.95,1.1,2.95,3.21V19.9H17.77V14.55c0-1.28-.46-1.91-1.6-1.91s-1.91.78-1.91,2.34Z"/></g></g></svg>