<svg xmlns="http://www.w3.org/2000/svg" viewBox="0 0 26.87 26.87"><defs><style>.cls-1{fill:#fff;}</style></defs><g id="Layer_2" data-name="Layer 2"><g id="Layer_1-2" data-name="Layer 1"><rect width="26.87" height="26.87" rx="7.62"/><path class="cls-1" d="M12.16,11.55c0,.65.32.88,1.17,1.06l1.15.22c2.16.43,2.92,1.06,2.92,2.63q0,2.77-3.75,2.77c-2.36,0-3.67-.95-3.91-3H11.8c.16.94.66,1.37,1.89,1.37s1.53-.36,1.53-1-.29-.87-1.28-1.07l-1.33-.25c-1.75-.32-2.63-1-2.63-2.61S11.13,8.9,13.45,8.9c2.52,0,3.64,1,3.75,2.94H15.06c-.1-.86-.53-1.28-1.59-1.28S12.16,10.9,12.16,11.55Z"/></g></g></svg>