<svg width="100%" height="100%" viewBox="0 0 262 262" fill="none" xmlns="http://www.w3.org/2000/svg">
<path d="M131.04 258.125C201.227 258.125 258.125 201.227 258.125 131.04C258.125 60.8522 201.227 3.95412 131.04 3.95412C60.8522 3.95412 3.9541 60.8522 3.9541 131.04C3.9541 201.227 60.8522 258.125 131.04 258.125Z" fill="#FFC019" stroke="black" strokeMiterlimit="10"/>
<path d="M86.1207 115.46C93.9824 115.46 100.356 106.821 100.356 96.1642C100.356 85.5072 93.9824 76.8681 86.1207 76.8681C78.259 76.8681 71.8859 85.5072 71.8859 96.1642C71.8859 106.821 78.259 115.46 86.1207 115.46Z" fill="black"/>
<path d="M175.168 115.46C183.029 115.46 189.402 106.821 189.402 96.1642C189.402 85.5072 183.029 76.8681 175.168 76.8681C167.306 76.8681 160.933 85.5072 160.933 96.1642C160.933 106.821 167.306 115.46 175.168 115.46Z" fill="black"/>
<path d="M71.1741 193.752C87.6988 179.088 109.026 170.989 131.119 170.989C153.212 170.989 174.538 179.088 191.063 193.752" stroke="black" strokeWidth="2" strokeLinecap="round" strokeLinejoin="round"/>
</svg>
