<svg width="100%" height="100%" viewBox="0 0 34 34" fill="none" xmlns="http://www.w3.org/2000/svg">
<g clipPath="url(#clip0_24_9)">
<path d="M16.57 32.64C25.4452 32.64 32.64 25.4452 32.64 16.57C32.64 7.69478 25.4452 0.5 16.57 0.5C7.69478 0.5 0.5 7.69478 0.5 16.57C0.5 25.4452 7.69478 32.64 16.57 32.64Z" fill="#FFC019" stroke="black" strokeMiterlimit="10"/>
<path d="M10.89 14.6C11.8841 14.6 12.69 13.5076 12.69 12.16C12.69 10.8124 11.8841 9.72 10.89 9.72C9.89585 9.72 9.08997 10.8124 9.08997 12.16C9.08997 13.5076 9.89585 14.6 10.89 14.6Z" fill="black"/>
<path d="M22.15 14.6C23.1441 14.6 23.95 13.5076 23.95 12.16C23.95 10.8124 23.1441 9.72 22.15 9.72C21.1559 9.72 20.35 10.8124 20.35 12.16C20.35 13.5076 21.1559 14.6 22.15 14.6Z" fill="black"/>
<path d="M24.15 21.62C22.0611 23.4715 19.3664 24.4939 16.575 24.4939C13.7836 24.4939 11.0889 23.4715 9 21.62" stroke="black" strokeWidth="2" strokeLinecap="round" strokeLinejoin="round"/>
</g>
<defs>
<clipPath id="clip0_24_9">
<rect width="33.13" height="33.13" fill="white"/>
</clipPath>
</defs>
</svg>
