<svg width="57" height="57" viewBox="0 0 57 57" fill="none" xmlns="http://www.w3.org/2000/svg">
<path d="M28.2299 55.82C43.5061 55.82 55.8899 43.4362 55.8899 28.16C55.8899 12.8838 43.5061 0.5 28.2299 0.5C12.9538 0.5 0.569946 12.8838 0.569946 28.16C0.569946 43.4362 12.9538 55.82 28.2299 55.82Z" fill="#0D25FF" stroke="#0C0C0C" strokeMiterlimit="10"/>
<path d="M28.23 43.23C36.553 43.23 43.3 36.4829 43.3 28.16C43.3 19.8371 36.553 13.09 28.23 13.09C19.9071 13.09 13.16 19.8371 13.16 28.16C13.16 36.4829 19.9071 43.23 28.23 43.23Z" fill="black" stroke="#0C0C0C" strokeMiterlimit="10"/>
<path d="M17.1 21.56C19.276 21.56 21.04 19.796 21.04 17.62C21.04 15.444 19.276 13.68 17.1 13.68C14.924 13.68 13.16 15.444 13.16 17.62C13.16 19.796 14.924 21.56 17.1 21.56Z" fill="white" stroke="#0C0C0C" strokeMiterlimit="10"/>
</svg>
