<svg width="137" height="57" viewBox="0 0 137 57" fill="none" xmlns="http://www.w3.org/2000/svg">
<path d="M136 28.57L135.79 28.37" stroke="#0C0C0C" strokeMiterlimit="10"/>
<path d="M0.71 28.37L0.5 28.57" stroke="#0C0C0C" strokeMiterlimit="10"/>
<path d="M0.71 28.37L0.5 28.16" stroke="#0C0C0C" strokeMiterlimit="10"/>
<path d="M136 28.16L135.79 28.37" stroke="#0C0C0C" strokeMiterlimit="10"/>
<path d="M134.17 26.84C114.589 13.9619 91.6662 7.09925 68.23 7.09925C44.7939 7.09925 21.8708 13.9619 2.29004 26.84C20.0786 9.92789 43.6852 0.497101 68.23 0.497101C92.7749 0.497101 116.382 9.92789 134.17 26.84Z" fill="black" stroke="#0C0C0C" strokeMiterlimit="10"/>
<path d="M2.29004 30.07C21.8708 42.9481 44.7939 49.8108 68.23 49.8108C91.6662 49.8108 114.589 42.9481 134.17 30.07C116.382 46.9821 92.7749 56.4129 68.23 56.4129C43.6852 56.4129 20.0786 46.9821 2.29004 30.07Z" fill="black" stroke="#0C0C0C" strokeMiterlimit="10"/>
</svg>
