<svg width="100%" height="100%" viewBox="0 0 31 31" fill="none" xmlns="http://www.w3.org/2000/svg">
<path d="M15.3748 9.88021C15.3748 -8.83087 23.9327 6.81682 17.3175 13.432C23.9327 6.81682 39.5814 15.3748 20.8693 15.3748C39.5804 15.3748 23.9327 23.9327 17.3175 17.3175C23.9327 23.9327 15.3748 39.5814 15.3748 20.8693C15.3748 39.5804 6.81682 23.9327 13.432 17.3175C6.81682 23.9327 -8.83087 15.3748 9.88021 15.3748C-8.83087 15.3748 6.81682 6.81682 13.432 13.432C6.81682 6.81682 15.3748 -8.83087 15.3748 9.88021Z" fill="#FF0000"/>
<path d="M15.3748 9.88021C15.3748 -8.83087 23.9327 6.81682 17.3175 13.432C23.9327 6.81682 39.5814 15.3748 20.8693 15.3748C39.5804 15.3748 23.9327 23.9327 17.3175 17.3175C23.9327 23.9327 15.3748 39.5814 15.3748 20.8693C15.3748 39.5804 6.81682 23.9327 13.432 17.3175C6.81682 23.9327 -8.83087 15.3748 9.88021 15.3748C-8.83087 15.3748 6.81682 6.81682 13.432 13.432C6.81682 6.81682 15.3748 -8.83087 15.3748 9.88021Z" stroke="#231F20" strokeWidth="2" strokeMiterlimit="10"/>
</svg>
