<svg width="100%" height="100%" viewBox="0 0 38 38" fill="none" xmlns="http://www.w3.org/2000/svg">
<path d="M20.0047 5.06435C20.0047 5.06435 16.27 8.06099 16.2312 8.17832C16.1925 8.29565 13.4393 10.5522 12.9683 10.8245C12.4972 11.0967 10.4126 11.9926 9.9013 12.5763C9.39001 13.1599 8.21018 14.1723 8.01417 14.2498C7.81815 14.3273 6.08828 13.9775 4.98746 14.2498C3.88663 14.5221 2.78581 14.5612 2.23576 15.1449C1.68572 15.7286 1.56498 16.1182 1.1737 17.0524C0.782407 17.9866 0.663156 18.2589 0.663156 19.1185C0.663156 19.9782 0.741414 20.2468 0.663156 21.7647C0.584899 23.2826 0.623655 23.5947 0.663156 25.4623C0.702658 27.33 0.623655 27.5646 0.938177 28.1874C1.2527 28.8102 1.60896 29.2382 2.07851 29.5895C2.54805 29.9407 2.35352 29.7835 3.72937 30.6402C5.10522 31.497 5.10522 31.4578 5.77376 31.691C6.4423 31.9242 6.24554 32.0415 7.58189 32.4695C8.91823 32.8975 9.78354 33.1336 10.8449 33.248C11.9062 33.3624 13.5966 33.4428 14.9731 33.248C16.3497 33.0532 17.3313 32.9366 18.3144 32.6643C19.2974 32.392 20.9088 32.0415 21.2211 31.7685C21.5334 31.4955 23.2655 29.8226 23.308 29.5504C23.3504 29.2781 23.7402 27.7986 23.7402 27.7986C23.7402 27.7986 25.2734 26.4755 25.5096 26.0859C25.7459 25.6963 26.1387 23.712 26.1387 23.4397C26.1387 23.1674 26.7684 22.3078 27.121 21.9174C27.4735 21.5271 28.4178 19.6211 28.4178 19.3879C28.4178 19.1547 28.6928 18.298 28.6928 18.298C28.6928 18.298 33.2139 17.9866 33.6469 18.0257C34.08 18.0648 36.6341 17.6752 36.6341 17.6752C36.6341 17.6752 37.3049 15.2622 36.9882 14.9508C36.6714 14.6394 35.5333 13.748 34.8655 13.627C34.1977 13.506 28.4968 13.1577 28.4968 13.1577C28.4968 13.1577 21.1451 13.002 20.9088 13.002C20.6725 13.002 19.6515 12.808 19.6515 12.808C19.6515 12.808 21.3023 11.2119 21.4201 10.8614C21.5378 10.5108 22.9107 8.21448 22.9927 7.94219C23.0747 7.6699 22.5604 5.68493 22.2854 5.41264C22.0104 5.14035 20.9483 4.63415 20.9483 4.63415L20.0047 5.06435Z" fill="url(#paint0_linear_46_2)"/>
<defs>
<linearGradient id="paint0_linear_46_2" x1="0.617692" y1="18.9997" x2="37.0724" y2="18.9997" gradientUnits="userSpaceOnUse">
<stop stop-color="#EB7FFF"/>
<stop offset="0.49" stop-color="#FBB040"/>
<stop offset="1" stop-color="#F9ED32"/>
</linearGradient>
</defs>
</svg>
