<svg width="100%" height="100%" viewBox="0 0 48 31" fill="none" xmlns="http://www.w3.org/2000/svg">
<path d="M19.0541 14.8151H8.81337C8.67941 14.8153 8.55021 14.7654 8.45105 14.6754L5.62483 12.1091C5.51911 12.0132 5.37965 11.9632 5.23708 11.97C5.0945 11.9769 4.96048 12.04 4.86445 12.1456V12.1456C4.7685 12.2515 4.71846 12.3911 4.72531 12.5338C4.73217 12.6765 4.79536 12.8107 4.90101 12.9068L5.9709 13.8817C6.05146 13.9548 6.108 14.0506 6.13307 14.1564C6.15814 14.2623 6.15057 14.3732 6.11136 14.4747C6.07214 14.5762 6.00312 14.6634 5.91337 14.7249C5.82363 14.7864 5.71737 14.8192 5.60858 14.8191H4.08865C3.95497 14.8191 3.82609 14.7693 3.72714 14.6794L0.900917 12.1131C0.795065 12.0172 0.655471 11.9672 0.512765 11.974C0.370059 11.9809 0.235901 12.044 0.139732 12.1497V12.1497C0.0921696 12.2021 0.0554053 12.2634 0.0315405 12.33C0.00767567 12.3967 -0.0028227 12.4673 0.000647847 12.538C0.00411839 12.6087 0.0214898 12.6781 0.0517666 12.742C0.0820434 12.806 0.124632 12.8634 0.1771 12.9109L2.33881 14.8736C2.39422 14.9242 2.43849 14.9858 2.46877 15.0545C2.49905 15.1231 2.51469 15.1974 2.51469 15.2724C2.51469 15.3475 2.49905 15.4217 2.46877 15.4904C2.43849 15.5591 2.39422 15.6207 2.33881 15.6713L0.1771 17.6299C0.124632 17.6774 0.0820434 17.7348 0.0517666 17.7988C0.0214898 17.8628 0.00411839 17.9321 0.000647847 18.0028C-0.0028227 18.0735 0.00767567 18.1442 0.0315405 18.2108C0.0554053 18.2774 0.0921696 18.3387 0.139732 18.3911V18.3911C0.235901 18.4968 0.370059 18.56 0.512765 18.5668C0.655471 18.5737 0.795065 18.5236 0.900917 18.4277L3.53867 16.032C3.63778 15.9424 3.76655 15.8926 3.90018 15.8923H5.42011C5.5289 15.8922 5.63516 15.9251 5.7249 15.9865C5.81465 16.048 5.88367 16.1352 5.92289 16.2367C5.9621 16.3382 5.96968 16.4491 5.9446 16.555C5.91953 16.6609 5.86299 16.7566 5.78243 16.8297L4.90101 17.6299C4.79536 17.7261 4.73217 17.8603 4.72531 18.003C4.71846 18.1457 4.7685 18.2853 4.86445 18.3911V18.3911C4.96048 18.4967 5.0945 18.5599 5.23708 18.5667C5.37965 18.5736 5.51911 18.5236 5.62483 18.4277L8.26258 16.032C8.36195 15.9423 8.49101 15.8925 8.6249 15.8923H19.0541V14.8151Z" fill="black"/>
<path d="M38.4811 2.77337C39.1515 3.35046 39.7017 4.05397 40.1003 4.84374C40.4989 5.6335 40.7379 6.49404 40.8039 7.37621C40.8698 8.25837 40.7613 9.14489 40.4846 9.98512C40.2078 10.8254 39.7683 11.6028 39.1911 12.2732L34.2803 17.976L25.012 28.7431L15.7429 17.976L10.833 12.2732C10.2558 11.6028 9.81629 10.8253 9.53963 9.985C9.26297 9.14474 9.15455 8.25821 9.22056 7.37604C9.28657 6.49387 9.52571 5.63334 9.92434 4.84361C10.323 4.05387 10.8733 3.3504 11.5438 2.77337V2.77337C12.2716 2.14603 13.1159 1.6683 14.0285 1.3675C14.941 1.0667 15.9039 0.948728 16.8621 1.02033C17.8203 1.09193 18.755 1.3517 19.6127 1.78478C20.4704 2.21786 21.2344 2.81577 21.8608 3.54431L25.0161 7.20889L28.1713 3.54431C28.7978 2.81577 29.5617 2.21786 30.4195 1.78478C31.2772 1.3517 32.2119 1.09193 33.17 1.02033C34.1282 0.948728 35.0911 1.0667 36.0037 1.3675C36.9162 1.6683 37.7606 2.14603 38.4884 2.77337H38.4811Z" fill="#FF0000" stroke="#231F20" strokeWidth="2" strokeMiterlimit="10"/>
<path d="M44.4917 11.1018H44.0652C43.9708 11.1017 43.8783 11.1278 43.7978 11.1771C43.7174 11.2264 43.6521 11.297 43.6092 11.381C43.5663 11.4651 43.5475 11.5594 43.5549 11.6534C43.5623 11.7475 43.5955 11.8377 43.6509 11.9141L45.1717 14.0019C45.227 14.0782 45.2603 14.1684 45.2676 14.2624C45.275 14.3564 45.2563 14.4506 45.2135 14.5346C45.1708 14.6187 45.1056 14.6893 45.0252 14.7386C44.9449 14.7879 44.8525 14.8141 44.7582 14.8143H25.012V15.8915H44.9653C45.0597 15.8914 45.1522 15.9175 45.2327 15.9668C45.3132 16.0161 45.3784 16.0867 45.4213 16.1707C45.4642 16.2548 45.483 16.3491 45.4756 16.4432C45.4683 16.5372 45.435 16.6275 45.3796 16.7038L43.6736 19.0694C43.6182 19.1459 43.585 19.2362 43.5776 19.3303C43.5703 19.4245 43.5892 19.5188 43.6321 19.6029C43.6751 19.687 43.7405 19.7576 43.8211 19.8068C43.9017 19.856 43.9943 19.882 44.0888 19.8818H44.495C44.5759 19.8819 44.6557 19.8627 44.7277 19.8258C44.7997 19.7889 44.862 19.7354 44.9093 19.6698L47.928 15.491L44.906 11.3138C44.8587 11.2481 44.7965 11.1946 44.7244 11.1578C44.6524 11.1209 44.5726 11.1017 44.4917 11.1018V11.1018Z" fill="black"/>
</svg>
