<svg width="100%" height="100%" viewBox="0 0 14 13" fill="none" xmlns="http://www.w3.org/2000/svg">
<g clip-path="url(#clip0_16_123)">
<path d="M0 1.23998C0.000587971 1.06606 0.037461 0.894183 0.108261 0.735331C0.179062 0.576479 0.282232 0.434149 0.411174 0.317442C0.540116 0.200735 0.691994 0.11222 0.857095 0.0575547C1.0222 0.00288986 1.19689 -0.0167211 1.37 -2.42027e-05C1.54311 -0.0167211 1.7178 0.00288986 1.88291 0.0575547C2.04801 0.11222 2.19988 0.200735 2.32883 0.317442C2.45777 0.434149 2.56094 0.576479 2.63174 0.735331C2.70254 0.894183 2.73941 1.06606 2.74 1.23998C2.73803 1.41304 2.70014 1.58382 2.62873 1.74148C2.55732 1.89914 2.45395 2.04026 2.32516 2.15589C2.19637 2.27152 2.04497 2.35914 1.88055 2.4132C1.71613 2.46727 1.54228 2.4866 1.37 2.46998C1.19772 2.4866 1.02387 2.46727 0.859446 2.4132C0.695028 2.35914 0.543629 2.27152 0.414839 2.15589C0.28605 2.04026 0.182676 1.89914 0.111267 1.74148C0.0398578 1.58382 0.0019688 1.41304 0 1.23998H0ZM0.29 3.99998H2.45V13H0.29V3.99998Z" fill="white"/>
<path d="M7.34005 12.93H5.18005V3.99998H7.34005V5.52998C7.56738 4.99626 7.9506 4.54364 8.4395 4.23138C8.92841 3.91912 9.50022 3.76179 10.0801 3.77998C11.9201 3.77998 13.0001 4.87998 13.0001 6.99998V12.94H10.8601V7.57998C10.8601 6.29998 10.3901 5.66998 9.25005 5.66998C8.11005 5.66998 7.34005 6.44998 7.34005 7.99998V12.93Z" fill="white"/>
</g>
<defs>
<clipPath id="clip0_16_123">
<rect width="13.03" height="12.93" fill="white"/>
</clipPath>
</defs>
</svg>
