<svg width="100%" height="100%" viewBox="0 0 21 21" fill="none" xmlns="http://www.w3.org/2000/svg">
<path d="M9.17196 11.828C9.92207 12.5779 10.9393 12.9991 12 12.9991C13.0606 12.9991 14.0778 12.5779 14.828 11.828L18.828 7.82798C19.5566 7.07357 19.9598 6.06316 19.9507 5.01438C19.9415 3.96559 19.5209 2.96234 18.7792 2.22071C18.0376 1.47907 17.0344 1.0584 15.9856 1.04928C14.9368 1.04017 13.9264 1.44335 13.172 2.17198L12.072 3.27198M12.828 8.17198C12.0778 7.4221 11.0606 7.00084 9.99996 7.00084C8.9393 7.00084 7.92207 7.4221 7.17196 8.17198L3.17196 12.172C2.78992 12.541 2.48519 12.9823 2.27555 13.4704C2.06592 13.9584 1.95557 14.4833 1.95096 15.0144C1.94634 15.5455 2.04755 16.0722 2.24867 16.5638C2.4498 17.0554 2.74681 17.502 3.12238 17.8776C3.49795 18.2531 3.94456 18.5501 4.43614 18.7513C4.92773 18.9524 5.45445 19.0536 5.98556 19.049C6.51668 19.0444 7.04156 18.934 7.52958 18.7244C8.01759 18.5148 8.45897 18.21 8.82796 17.828L9.92996 16.727L12.828 8.17198Z" stroke="black" strokeWidth="2" strokeLinecap="round" strokeLinejoin="round"/>
</svg>
