<svg width="100%" height="100%" viewBox="0 0 12 13" fill="none" xmlns="http://www.w3.org/2000/svg">
<path d="M10.5 5.1504L1.88004 0.170396C1.68934 0.0591065 1.47257 0.000314707 1.25177 1.25994e-06C1.03098 -0.000312187 0.814038 0.0578639 0.623025 0.168611C0.432011 0.279358 0.27374 0.438725 0.164313 0.630498C0.0548855 0.822271 -0.00179302 1.03961 4.32403e-05 1.2604V11.2604C0.00684916 11.4769 0.0698156 11.688 0.182768 11.8728C0.29572 12.0577 0.45478 12.2101 0.64435 12.3149C0.833919 12.4198 1.04749 12.4736 1.26412 12.471C1.48074 12.4685 1.69299 12.4097 1.88004 12.3004L10.5 7.3004C10.6866 7.18972 10.8411 7.03241 10.9484 6.84393C11.0557 6.65545 11.1122 6.44229 11.1122 6.2254C11.1122 6.0085 11.0557 5.79534 10.9484 5.60686C10.8411 5.41838 10.6866 5.26108 10.5 5.1504Z" fill="white"/>
</svg>
