<svg width="100%" height="100%" viewBox="0 0 8 10" fill="none" xmlns="http://www.w3.org/2000/svg">
<g clip-path="url(#clip0_16_128)">
<path d="M2.41 2.65C2.41 3.29 2.74 3.53 3.58 3.71L4.74 3.92C6.9 4.36 7.65 5 7.65 6.55C7.65 8.41 6.41 9.33 3.91 9.33C1.41 9.33 0.23 8.33 0 6.33H2.05C2.21 7.27 2.72 7.7 3.94 7.7C5.16 7.7 5.47 7.34 5.47 6.7C5.47 6.06 5.19 5.8 4.19 5.6L2.86 5.35C1.12 5 0.23 4.34 0.23 2.74C0.23 1.14 1.39 0 3.71 0C6.23 0 7.35 1 7.45 2.93H5.31C5.22 2.07 4.79 1.66 3.73 1.66C2.67 1.66 2.41 2 2.41 2.65Z" fill="white"/>
</g>
<defs>
<clipPath id="clip0_16_128">
<rect width="7.65" height="9.33" fill="white"/>
</clipPath>
</defs>
</svg>
